<?xml version="1.0" encoding="UTF-8" standalone="no"?>
<svg width="302px" height="304px" viewBox="0 0 302 304" version="1.1" xmlns="http://www.w3.org/2000/svg" xmlns:xlink="http://www.w3.org/1999/xlink" xmlns:sketch="http://www.bohemiancoding.com/sketch/ns">
    <title>Slice 1</title>
    <description>Created with Sketch (http://www.bohemiancoding.com/sketch)</description>
    <defs></defs>
    <g id="Page-1" stroke="none" stroke-width="1" fill="none" fill-rule="evenodd" sketch:type="MSPage">
        <g id="avatar-azul-y-negro" sketch:type="MSLayerGroup" transform="translate(0.000000, -1.000000)">
            <path d="M151.034091,1.84502239 C234.352273,1.84502239 301.893182,69.4867388 301.893182,152.924724 C301.893182,236.371813 234.352273,304.01353 151.034091,304.01353 C67.7204545,304.01353 0.179545455,236.371813 0.179545455,152.924724 C0.179545455,69.4867388 67.7204545,1.84502239 151.034091,1.84502239" id="Fill-92" fill="#00AEFF" sketch:type="MSShapeGroup"></path>
            <path d="M144.984091,248.986067 L70.9977273,206.208679 C67.2522727,204.041813 64.9477273,200.044948 64.9477273,195.706664 L64.9522727,110.142784 C64.9522727,105.818157 67.2522727,101.821291 70.9977273,99.6407687 L144.984091,56.8679328 C148.729545,54.6965149 153.347727,54.6965149 157.088636,56.8679328 L231.079545,99.6407687 C236.865909,102.995769 238.843182,110.406813 235.506818,116.206366 C232.170455,121.996813 224.765909,123.986142 218.965909,120.649351 L157.202273,84.9279328 C153.793182,82.9522612 148.279545,82.9522612 144.875,84.9279328 L95.3113636,113.584276 C91.9113636,115.550843 89.1522727,120.330694 89.1522727,124.272933 L89.1522727,181.585619 C89.1522727,185.523306 91.9068182,190.307709 95.3113636,192.283381 L144.875,220.930619 C148.279545,222.897187 153.793182,222.897187 157.202273,220.930619 L206.729545,192.297037 C210.138636,190.33047 212.884091,185.536963 212.870455,181.599276 L212.834091,172.185246 C212.820455,168.24756 209.615909,165.05644 205.684091,165.05644 L129.325,165.05644 C122.638636,165.05644 117.215909,159.634724 117.215909,152.933828 C117.215909,146.242037 122.638636,140.811216 129.325,140.811216 L224.856818,140.811216 C231.525,140.811216 236.938636,146.219276 236.965909,152.888306 L236.965909,195.665694 C236.984091,200.013082 234.838636,204.037261 231.084091,206.208679 L157.093182,248.986067 C155.220455,250.064948 153.134091,250.606664 151.038636,250.606664 C148.952273,250.606664 146.856818,250.0695 144.984091,248.986067" id="Fill-93" fill="#42494D" sketch:type="MSShapeGroup"></path>
        </g>
    </g>
</svg>